<?xml version="1.0" encoding="utf-8"?>
<!-- Generator: Adobe Illustrator 16.0.4, SVG Export Plug-In . SVG Version: 6.00 Build 0)  -->
<!DOCTYPE svg PUBLIC "-//W3C//DTD SVG 1.1//EN" "http://www.w3.org/Graphics/SVG/1.1/DTD/svg11.dtd">
<svg version="1.1" xmlns="http://www.w3.org/2000/svg" xmlns:xlink="http://www.w3.org/1999/xlink" x="0px" y="0px"
	 width="2506.51px" height="538.051px" viewBox="0 0 2506.51 538.051" enable-background="new 0 0 2506.51 538.051"
	 xml:space="preserve">
<g id="Layer_2" display="none">
	
		<rect x="-366.721" y="-125.238" display="inline" fill-rule="evenodd" clip-rule="evenodd" fill="#4E4F4A" width="3239" height="702"/>
</g>
<g id="Layer_1">
	<g display="none">
		<defs>
			<rect id="SVGID_1_" x="-366.477" y="-124.778" width="3239" height="702"/>
		</defs>
		<clipPath id="SVGID_2_" display="inline">
			<use xlink:href="#SVGID_1_"  overflow="visible"/>
		</clipPath>
		<rect x="-466.477" y="-124.778" display="inline" clip-path="url(#SVGID_2_)" fill="#FFFFFF" width="3339" height="802"/>
	</g>
	
		<rect x="-367.484" y="-30.697" display="none" fill-rule="evenodd" clip-rule="evenodd" fill="#FFFFFF" width="3240.524" height="607.852"/>
	
		<rect x="-367.484" y="-30.697" display="none" fill="none" stroke="#000000" stroke-width="1.182" stroke-linejoin="round" stroke-miterlimit="10" width="3240.524" height="607.852"/>
	<path fill-rule="evenodd" clip-rule="evenodd" fill="#AA8B3E" d="M0,420.881h109.85V413.2l-20.458-1.479V208.745L222.24,425.6
		l126.414-216.854V410.98l-20.17,2.22v7.681h116.862V413.2l-20.458-1.965V95.226l20.747-1.479v-7.425H321.472v7.425l19.044,1.25
		l-117.439,194.53L107.6,95.482l19.361-1.735v-7.425H0.548v7.425l20.458,1.735v316.493L0,413.2V420.881z M2142.13,420.881h103.705
		v-6.686l-18.209-1.48V293.762h85.758l93.057,118.953l-18.496,1.48v6.686h118.565v-6.686l-18.236-1.48l-92.769-118.953
		c52.978-6.455,86.046-41.156,86.046-81.292c0-24.801-11.485-48.097-29.722-63.457c-17.082-14.136-41.464-26.026-98.078-26.026
		h-211.881v7.196l18.207,1.224v281.308l-17.947,1.48V420.881z M2227.626,242.936v-67.896h122.75c26.084,0,34.192,2.985,39.53,5.205
		c13.735,5.945,21.007,16.61,21.007,28.501c0,16.84-11.483,34.444-63.337,34.444L2227.626,242.936z M1774.692,420.881h320.347
		l1.703,15.614h7.271v-80.78h-7.012l-1.963,15.844h-234.59v-80.297h153.046l1.962,16.125h7.013V228.57h-7.013l-1.962,16.1h-153.046
		v-75.321h228.704l1.962,16.355h7.301v-78.332h-7.013l-1.962,16.126h-314.749v6.685l18.236,0.484v282.048l-18.236,1.48V420.881z
		 M1523.568,420.881h82.121v-6.686l-17.948-1.225l143.236-281.308l18.496-1.48v-6.685h-103.705v6.685l18.208,0.995l-98.655,194.554
		l-97.53-194.069l17.948-1.48v-6.685h-103.416v6.685l18.207,1.224l141.534,281.563l-18.496,1.225V420.881z M1253.947,420.881
		h103.416v-6.686l-18.207-1.48V131.407l17.919-1.224v-6.685h-103.416v6.685l17.948,1.224v281.308l-17.66,1.48V420.881z
		 M816.998,420.881H933.6V413.2l-20.198-1.735V277.637h96.144l104.83,134.084l-20.746,1.479v7.681h133.396V413.2l-20.458-1.479
		l-104.542-133.83c59.701-7.424,96.693-46.336,96.693-91.446c0-28.016-12.869-54.042-33.356-71.392
		c-19.044-16.1-46.514-29.241-110.139-29.241H816.709v7.936l20.458,1.479v316.495l-20.169,1.479V420.881z M913.402,220.635v-76.317
		h137.897c29.432,0,38.406,3.215,44.293,5.69c15.408,6.685,23.805,18.831,23.805,32.226c0,18.831-12.869,38.656-71.445,38.656
		L913.402,220.635z M732.914,328.948l8.137,11.635c-31.394,26.281-70.636,39.421-106.243,39.421
		c-68.386,0-109.014-40.16-109.014-83.537c0-47.815,45.677-83.512,108.725-83.512c34.193,0,68.127,8.93,96.981,26.025l-5.886,12.146
		l5.05,2.476l41.753-66.417l-5.31-2.73l-8.685,11.15c-38.954-17.35-81.861-26.51-126.125-26.51
		c-104.541,0-163.694,58.736-163.694,126.888c0,68.636,59.413,127.883,163.406,127.883c32.519,0,63.625-5.205,92.768-17.605
		c17.371-7.425,33.357-17.096,47.38-28.73l9.811,9.645l5.049-3.215l-49.053-58.227L732.914,328.948z"/>
	<path fill-rule="evenodd" clip-rule="evenodd" fill="#AA8B3E" d="M894.203,508.771l2.532,3.682
		c-10.029,8.408-22.558,12.562-33.972,12.562c-21.781,0-34.681-12.834-34.681-26.611c0-15.331,14.555-26.711,34.681-26.711
		c10.874,0,21.782,2.869,30.967,8.307l-1.857,3.885l1.62,0.844l13.306-21.309l-1.756-0.811l-2.702,3.546
		c-12.495-5.539-26.171-8.409-40.287-8.409c-33.432,0-52.241,18.775-52.241,40.523c0,21.883,18.944,40.726,52.174,40.726
		c10.299,0,20.227-1.587,29.649-5.504c5.505-2.431,10.604-5.504,15.095-9.287l3.141,3.142l1.587-1.082l-15.703-18.606
		L894.203,508.771z M1656.651,538.051h24.517v-1.486l-4.255-0.473v-66.459l4.188-0.304v-1.587h-24.45v1.587l4.289,0.304v66.561
		l-4.289,0.371V538.051z M1605.187,538.86c14.892,0,26.103-4.356,33.364-10.603c7.732-6.519,11.853-14.859,11.853-25.902
		c0-19.518-16.647-35.998-45.623-35.998c-27.758,0-44.879,16.311-44.879,36.066C1559.902,523.191,1576.854,538.86,1605.187,538.86z
		 M1605.558,526.163c-0.338,0-0.574,0-0.912,0c-16.581,0-27.86-10.333-27.86-23.233c0-13.474,11.313-23.773,28.435-23.773
		c17.257,0,28.502,10.536,28.502,23.367c0,6.957-3.58,13.609-8.814,17.73C1620.552,523.562,1612.987,526.163,1605.558,526.163z
		 M1473.992,538.051h24.518v-1.486l-4.256-0.473v-28.097h20.229l22.051,28.198l-4.355,0.371v1.486h28.062v-1.486l-4.321-0.371
		l-21.984-28.131c12.562-1.553,20.329-9.793,20.329-19.248c0-5.877-2.735-11.381-7.024-14.994c-3.984-3.41-9.827-6.18-23.132-6.18
		h-50.114v1.688l4.289,0.304v66.561l-4.289,0.371V538.051z M1494.253,496.008v-16.041h28.975c6.146,0,8.172,0.709,9.354,1.215
		c3.276,1.385,4.965,3.951,4.965,6.754c0,3.986-2.701,8.172-14.961,8.172L1494.253,496.008z M1449.509,508.771l2.499,3.682
		c-10.03,8.408-22.524,12.562-33.938,12.562c-21.816,0-34.749-12.834-34.749-26.611c0-15.331,14.588-26.711,34.749-26.711
		c10.84,0,21.713,2.869,30.932,8.307l-1.856,3.885l1.587,0.844l13.339-21.309l-1.722-0.811l-2.702,3.546
		c-12.528-5.539-26.171-8.409-40.32-8.409c-33.397,0-52.241,18.775-52.241,40.523c0,21.883,18.944,40.726,52.174,40.726
		c10.334,0,20.228-1.587,29.649-5.504c5.504-2.431,10.604-5.504,15.095-9.287l3.175,3.142l1.553-1.082l-15.702-18.606
		L1449.509,508.771z M1202.62,538.051h23.233v-1.486l-4.322-0.371v-45.454l48.02,45.319l-4.187,0.506v1.486h25.124v-1.486
		l-4.188-0.473v-66.459l4.525-0.304v-1.587h-23.132v1.587l4.255,0.304v47.784l-50.655-47.784l4.222-0.304v-1.587h-22.896v1.587
		l4.39,0.271v66.492l-4.39,0.473V538.051z M1104.857,538.051h23.2v-1.486l-4.323-0.371v-45.454l48.122,45.319l-4.221,0.506v1.486
		h25.124v-1.486l-4.153-0.473v-66.459l4.491-0.304v-1.587h-23.166v1.587l4.255,0.304v47.784l-50.688-47.784l4.255-0.304v-1.587
		h-22.896v1.587l4.356,0.271v66.492l-4.356,0.473V538.051z M1002.569,538.051h24.551v-1.486l-3.749-0.338l8.409-16.479h35.795
		l8.409,16.614l-3.85,0.203v1.486h26.678v-1.486l-4.964-0.203l-33.668-66.829l3.917-0.203v-1.587h-26.374v1.587l4.12,0.136
		l-34.546,66.762l-4.728,0.338V538.051z M1038.162,507.455l11.752-22.592l11.515,22.727L1038.162,507.455z M918.686,538.051h75.711
		l0.405,3.68h1.756v-19.012h-1.688l-0.473,3.715h-55.483v-18.979h36.268l0.338,3.816h1.756v-18.641h-1.756l-0.338,3.781h-36.268
		v-17.796h54.132l0.405,3.849h1.756V463.96h-1.587l-0.574,3.782h-74.36v1.587l4.288,0.136v66.627l-4.288,0.473V538.051z"/>
	<path fill-rule="evenodd" clip-rule="evenodd" fill="#AA8B3E" d="M1103.966,58.995h38.672l0.727-21.207l-2.503-0.372
		c-2.368,10.064-4.871,13.339-7.589,15.501c-2.072,1.654-4.441,2.499-6.89,2.499c-6.216,0-6.485-0.946-6.485-5.978l0.08-18.1
		c4.548-0.507,8.612,2.904,9.177,12.799h2.853V16.412h-2.664c-1.185,8.814-5.248,11.785-9.366,11.144l0.054-16.986
		c0-4.222,0.108-5.167,5.894-5.167c7.159,0,12.433,4.863,14.102,17.189l2.799-0.338L1142.1,1.857h-37.973v3.478
		c6.028-0.168,6.513,1.216,6.513,5.268l-0.108,38.565c-0.081,5.099-0.242,6.045-6.566,6.18V58.995z M1372.735,24.956
		c1.481-8.713,2.611-12.563,6.621-12.563c1.991,0,3.956,0.304,5.921,0.473c3.148,0.203,5.141,0.27,6.62,0.27
		c0.915,0,2.88-0.067,4.467-0.202c-16.389,28.4-17.385,36.91-17.385,39.51c0,4.593,2.422,7.362,5.383,7.362
		c1.695,0,3.094-0.811,4.145-2.33c0.592-0.878,1.184-2.027,1.669-5.505c0.321-2.296,0.296-4.626,0.511-6.923
		c0.538-5.876,2.395-16.58,12.11-39.679V1.79c-2.799,0.304-5.786,0.472-9.742,0.472c-8.962,0-16.471-1.215-20.211-2.262
		l-2.772,24.483L1372.735,24.956z M1342.701,32.756c-6.242,1.689-9.473,7.328-9.473,13.035c0,6.856,4.387,14.42,16.282,14.42
		c11.976,0,17.843-8.713,17.843-18.708c0-6.991-3.203-13.069-9.069-15.838c4.898-1.756,7.67-6.72,7.67-11.583
		c0-6.383-4.683-13.711-14.425-13.711c-11.169,0-15.475,10.536-15.475,18.27C1336.054,24.922,1338.665,30.156,1342.701,32.756z
		 M1345.258,34.276c2.261,1.047,4.629,1.857,6.917,2.837c6.78,2.87,7.695,5.639,7.695,9.59c0,4.829-3.337,9.793-9.769,9.793
		c-5.759,0-9.204-4.559-9.204-10.874C1340.898,41.874,1342.325,37.552,1345.258,34.276z M1355.162,24.213
		c-3.444-1.385-6.755-2.229-8.773-3.85c-2.529-1.959-3.525-4.424-3.525-7.294c0-4.627,3.041-8.747,7.858-8.747
		c4.952,0,8.047,4.019,8.047,10.232C1358.768,18.978,1357.234,22.355,1355.162,24.213z M1318.884,29.244
		c0.296,7.362-0.889,15.298-2.072,19.08c-1.884,6.045-4.764,8.003-7.778,8.003c-2.637,0-3.175-1.317-3.175-2.363
		c0-0.777,0.107-0.946,0.592-2.432c0.565-1.655,0.673-2.533,0.673-3.377c0-3.377-2.1-6.146-5.113-6.146
		c-3.149,0-5.463,2.938-5.463,7.159c0,5.302,3.687,11.043,11.922,11.043c12.164,0,20.265-13.846,20.265-32.115
		c0-18.168-8.881-27.556-17.816-27.556c-7.83,0-16.119,6.923-16.119,19.586c0,5.876,2.018,11.009,4.574,13.778
		c1.965,2.195,4.979,3.681,8.37,3.681c3.121,0,5.866-1.148,8.235-3.714C1317.162,32.554,1318.158,31,1318.884,29.244z
		 M1311.16,31.642c-2.906-0.034-6.646-2.938-6.646-14.116c0-10.029,3.66-13.102,6.646-13.102c2.988,0.067,6.755,3.039,6.755,13.643
		C1317.915,28.332,1314.228,31.473,1311.16,31.642z M1265.652,58.995h26.455v-3.647h-2.53c-5.571,0-5.975-1.182-5.975-5.302
		l0.026-48.189h-2.529c-2.879,2.735-7.992,5.538-16.229,6.045v3.816l3.635-0.034c5.246,0,5.731,1.182,5.731,5.369l0.027,33.5
		c0,3.377-0.754,4.795-5.167,4.795h-3.418L1265.652,58.995z M1230.407,53.052c0,3.985,2.584,7.125,5.733,7.125
		c3.148,0,5.705-3.174,5.705-7.125c0-3.918-2.557-7.193-5.732-7.193C1232.964,45.859,1230.407,49.067,1230.407,53.052z
		 M1195.521,58.995h23.306v-3.613c-1.615-0.034-3.257,0.304-4.844-0.473c-1.292-0.608-2.153-1.688-2.153-5.538l-0.081-36.741
		c0-4.424,0.188-4.694,0.242-4.897c0.377-1.452,1.184-2.263,2.584-2.263c3.041,0,8.504,3.445,10.253,18.472l2.638-0.202
		l-0.808-21.883h-39.103l-0.727,21.917l2.638,0.202c2.072-15.568,7.131-18.506,10.361-18.506c1.399,0,2.099,0.71,2.449,1.892
		c0.161,0.54,0.161,1.182,0.161,3.309l0.027,39.409c0,3.816-0.484,5.437-6.97,5.302L1195.521,58.995z M1149.662,58.995h2.234
		l3.714-4.761c3.203,3.782,7.751,6.044,12.191,6.044c8.747,0,15.286-8.138,15.286-18.944c0-5.842-2.153-10.874-5.974-14.082
		c-1.05-0.844-3.849-2.499-7.051-3.512l-4.252-1.351c-7.751-2.431-9.016-5.471-9.016-9.287c0-4.457,2.961-8.645,7.885-8.645
		c4.897,0,11.277,4.627,14.21,18.101h2.745V1.857h-2.449l-3.095,3.749c-3.471-3.377-7.454-4.998-11.007-4.998
		c-8.558,0-14.775,7.969-14.775,18.033c0,8.003,3.687,14.588,13.322,17.526l4.656,1.452c6.324,1.959,7.939,5.572,7.939,9.422
		c0,4.964-3.283,9.421-8.128,9.421c-4.79,0-12.083-4.964-15.878-19.755h-2.557V58.995z"/>
	<polyline fill-rule="evenodd" clip-rule="evenodd" fill="#AA8B3E" points="342.917,44.339 342.881,30.233 1073.437,17.251 
		1083.593,44.339 342.917,44.339 	"/>
	<polyline fill-rule="evenodd" clip-rule="evenodd" fill="#AA8B3E" points="2161.774,44.339 2161.81,30.233 1431.253,17.251 
		1421.098,44.339 2161.774,44.339 	"/>
	<polyline fill-rule="evenodd" clip-rule="evenodd" fill="#AA8B3E" points="750.344,491.213 346.697,491.213 346.697,500.87 
		750.344,517.18 750.344,491.213 	"/>
	<polyline fill-rule="evenodd" clip-rule="evenodd" fill="#AA8B3E" points="1770.455,491.145 2159.412,491.145 2159.412,501.95 
		1770.455,516.032 1770.455,491.145 	"/>
	<path display="none" fill-rule="evenodd" clip-rule="evenodd" d="M1129.572-94.699c-4.458,0-8.139-2.364-8.139-11.988
		c0-3.377,1.79-15.23,8.477-15.23c5.335,0,9.016,8.172,9.016,16.547c0,3.613-1.013,6.045-1.959,7.294
		C1135.448-96.117,1132.611-94.699,1129.572-94.699z M1391.455-109.828c2.499,0,2.601-0.607,2.601-1.148
		c0-0.135-0.034-0.304-0.203-0.81c-1.688-4.627-1.992-6.214-2.296-8.78c-0.203-1.79-0.506-2.195-3.039-2.195
		c-5.269,0.101-5.403,1.384-5.403,2.161c0,0.777,1.452,5.167,2.972,8.611c0.776,1.756,1.25,1.959,2.329,2.094
		C1388.483-109.861,1388.787-109.828,1391.455-109.828z M1376.258-109.422c1.081,0,3.715-0.271,4.153-0.338
		c0.845-0.169,1.148-0.608,1.148-1.081c0-0.202-0.102-0.439-0.169-0.641c-1.249-3.614-1.452-4.525-1.992-8.173
		c-0.338-2.228-0.709-2.431-2.431-2.431c-1.486,0-3.276,0.203-4.661,0.473c-1.283,0.304-1.587,0.777-1.587,1.418
		c0,0.473,0.709,3.343,1.857,6.416c0.911,2.398,1.148,3.107,1.789,3.816C1374.806-109.625,1375.178-109.422,1376.258-109.422z
		 M1335.093-103.141c-4.829,1.047-7.834,3.546-9.051,5.741c-0.709,1.249-1.182,2.938-1.182,4.795
		c0,7.193,6.991,15.534,19.992,15.534c7.058,0,12.528-2.229,15.534-4.762c3.377-2.836,5.064-6.754,5.064-10.097
		c0-4.052-2.161-7.868-8.476-10.367c5.842-3.647,6.045-7.868,6.045-9.118c0-5.538-5.471-12.765-18.337-12.765
		c-9.793,0-16.412,7.734-16.412,13.035C1328.272-108.072,1330.332-104.728,1335.093-103.141z M1346.102-83.791
		c-3.748,0-8.341-0.812-12.224-2.229c-2.702-0.946-3.716-2.634-3.716-4.221c0-4.694,8.409-9.253,15.805-9.253
		c3.781,0,7.429,1.283,9.827,3.208c2.06,1.587,2.634,3.039,2.634,4.863C1358.428-87.877,1355.997-83.791,1346.102-83.791z
		 M1335.904-112.563c0-2.702,1.925-5.606,8.611-5.606c4.458,0,9.185,1.419,10.738,2.297c1.992,1.08,2.669,2.465,2.669,3.849
		c0,1.419-0.677,2.938-3.107,4.424c-2.33,1.419-4.964,2.128-7.024,2.128c-2.363,0-5.065-0.507-8.679-2.128
		C1336.883-108.916,1335.904-110.841,1335.904-112.563z M1315.169-77.172c4.424,0,4.457-0.845,4.457-2.027
		c0-2.06-0.202-4.12-0.27-6.179c-0.102-1.79-0.169-5.606-0.169-8.848c0-1.857,0-3.073,0-4.593c0-2.06,0.067-6.112,0.675-16.277
		c0.103-1.519,0.203-3.073,0.338-4.626c0.068-0.675,0.203-1.385,0.203-2.06c0-0.912-0.372-1.418-1.554-1.689
		c-1.047-0.27-2.77-0.506-4.694-0.506c-1.958,0-2.565,0.371-3.41,1.385c-0.912,1.114-1.688,2.363-2.566,3.512
		c-0.709,0.878-0.844,1.08-2.87,3.343c-0.338,0.405-0.743,0.776-0.743,1.351c0,0.675,0.911,1.756,2.093,1.756
		c0.878,0,1.419-0.912,2.297-0.912c0.507,0,0.979,0.236,0.979,1.654c0,5.235,0.236,10.469,0.236,15.737
		c0,3.343-0.168,11.988-0.304,13.677c-0.067,0.641-0.136,1.215-0.271,1.958c-0.202,0.878-0.337,1.284-0.337,1.588
		c0,0.776,0.27,1.249,1.958,1.452C1312.873-77.274,1314.764-77.172,1315.169-77.172z M1246.55-80.11
		c0,0.506,0.135,0.945,1.013,1.587c0.81,0.574,1.215,0.608,1.317,0.608c0.202,0,0.439-0.034,0.675-0.034
		c0.574,0,1.115,0.202,1.688,0.202c0.202,0,0.709-0.135,1.283-0.776c1.014-1.182,1.992-2.465,3.039-3.681
		c2.734-3.208,3.107-3.58,3.377-3.884c0.372-0.405,0.675-0.911,1.352-0.911c0.912,0,1.248,0.743,1.688,1.316
		c1.621,2.061,3.275,4.119,4.863,6.213c1.418,1.79,1.79,1.824,2.769,1.824c0.878,0,2.229-0.237,4.492-1.452
		c1.183-0.642,1.283-0.98,1.283-1.385c0-0.54-0.304-0.743-1.587-2.195c-1.756-1.992-3.073-3.512-6.281-7.598
		c-0.777-1.013-1.182-1.317-1.182-2.431c0-1.352,0.742-1.824,1.688-2.771c0.844-0.81,1.621-1.654,2.432-2.431
		c5.707-5.437,6.889-5.808,6.889-6.923c0-0.439-0.067-0.776-1.385-1.35c-1.25-0.575-2.769-0.845-3.241-0.845
		c-1.418,0-1.554,0.743-5.099,4.728c-3.445,3.85-3.918,4.66-4.83,4.66c-0.371,0-0.676-0.067-1.418-1.08
		c-0.236-0.338-1.283-1.824-4.153-6.518c-0.339-0.54-0.743-1.857-2.026-1.857c-0.236,0-2.027,0.202-5.674,2.026
		c-0.709,0.371-1.621,0.574-1.621,1.655c0,0.844,0.777,1.35,1.655,2.363c0.237,0.271,1.993,2.364,6.349,7.835
		c0.405,0.507,0.979,0.946,0.979,1.688c0,0.98-0.776,1.419-1.316,1.993c-5.302,5.302-5.437,5.437-6.72,6.619
		c-0.709,0.641-1.486,1.182-2.026,1.992C1246.617-80.617,1246.55-80.313,1246.55-80.11z M1214.84-109.828
		c2.499,0,2.6-0.607,2.6-1.148c0-0.135-0.033-0.304-0.202-0.81c-1.689-4.627-1.993-6.214-2.297-8.78
		c-0.202-1.79-0.506-2.195-3.039-2.195c-5.268,0.101-5.403,1.384-5.403,2.161c0,0.777,1.452,5.167,2.972,8.611
		c0.776,1.756,1.249,1.959,2.33,2.094C1211.868-109.861,1212.172-109.828,1214.84-109.828z M1199.644-109.422
		c1.08,0,3.714-0.271,4.153-0.338c0.845-0.169,1.149-0.608,1.149-1.081c0-0.202-0.102-0.439-0.169-0.641
		c-1.25-3.614-1.452-4.525-1.993-8.173c-0.337-2.228-0.709-2.431-2.431-2.431c-1.486,0-3.276,0.203-4.66,0.473
		c-1.284,0.304-1.587,0.777-1.587,1.418c0,0.473,0.709,3.343,1.857,6.416c0.912,2.398,1.148,3.107,1.79,3.816
		C1198.192-109.625,1198.563-109.422,1199.644-109.422z M1152.13-91.525c0,6.011,3.715,10.942,9.287,12.597
		c3.343,1.283,7.226,1.992,10.299,1.992c11.955,0,17.088-10.131,17.088-16.75c0-5.099-2.736-9.557-7.869-11.887
		c-2.161-1.013-5.234-1.688-8.138-1.688c-2.533,0-4.626,0.371-6.281,0.945c-0.439,0.169-0.878,0.372-1.351,0.575
		c-0.236,0.101-0.507,0.236-0.777,0.236c-0.506,0-0.878-0.304-0.878-0.878c0-0.405,0.102-0.642,0.676-2.094
		c1.384-3.714,3.714-7.463,4.93-8.915c2.229-2.6,4.356-3.58,7.7-3.58c1.08,0,2.093,0.068,3.748,0.406
		c0.709,0.101,1.351,0.439,2.06,0.439s1.148-0.406,1.148-1.216c0-0.068-0.135-1.249-0.338-2.026
		c-0.337-1.115-0.371-1.283-2.093-1.756c-1.317-0.338-3.006-0.574-4.323-0.574C1163.341-125.699,1152.13-105.606,1152.13-91.525z
		 M1168.981-80.549c-4.998,0-8.442-3.344-8.442-8.78c0-4.019,2.262-9.118,5.133-11.786c2.431-2.263,5.234-3.276,7.665-3.276
		c3.985,0,7.193,2.837,7.193,8.341c0,4.593-2.499,10.233-4.998,12.664C1173.472-81.394,1171.244-80.549,1168.981-80.549z
		 M1129.336-77.071c2.836,0,4.457-0.27,5.335-0.507c3.242-0.776,6.484-2.836,8.713-5.639c2.195-2.769,4.862-8.713,4.862-18.709
		c0-11.211-2.735-15.736-5.538-18.404c-1.925-1.823-5.031-3.647-10.198-4.559c-1.486-0.27-3.006-0.473-4.491-0.473
		c-5.032,0-8.071,1.486-10.976,4.863c-2.566,3.006-4.66,8.341-4.66,13.608c0,2.702,0.507,4.796,1.013,6.045
		c1.52,3.884,4.492,6.822,10.131,8.409c1.722,0.472,3.681,0.743,5.572,0.743c1.587,0,3.917-0.304,6.011-0.878
		c0.405-0.102,0.608-0.169,1.655-0.507c0.202-0.034,0.405-0.135,0.608-0.135c0.54,0,1.08,0.439,1.08,1.216
		c0,1.147-0.27,2.836-0.878,4.525c-1.925,5.167-4.862,6.821-8.037,6.821c-3.005,0-5.741-1.351-7.902-4.356
		c-0.675-0.979-0.844-2.127-3.444-2.127c-1.486,0-2.905,0.371-4.019,1.046c-1.013,0.608-1.249,1.25-1.249,1.858
		C1112.924-81.934,1120.285-77.071,1129.336-77.071z"/>
	<polyline fill-rule="evenodd" clip-rule="evenodd" fill="#AA8B3E" points="1663.844,461.09 1664.064,459.869 1666.042,459.869 
		1673.955,445.163 1671.317,445.163 1671.317,443.977 1688.022,443.977 1688.022,445.163 1686.044,445.163 1676.373,459.869 
		1678.571,459.869 1678.571,461.09 1663.844,461.09 	"/>
</g>
<g id="Layer_3">
</g>
</svg>
